<?xml version="1.0" encoding="UTF-8"?>
<svg id="a" data-name="Layer 1" xmlns="http://www.w3.org/2000/svg" viewBox="0 0 90.52 75.63">
  <defs>
    <style>
      .b {
        fill: #fff;
      }

      .b, .c {
        stroke: #000;
        stroke-miterlimit: 10;
      }
    </style>
  </defs>
  <path class="c" d="M90.02,52.98c0,29.53-89.52,29.53-89.52,0,.35-69.99,89.18-69.97,89.52,0Z"/>
  <path class="b" d="M65.79,68.59c1.73-.46,2.13-1.15,2.41-1.87,1.88-5,13.51-38.97-4.17-41.97-10.3-2.25-14.47,14.59-16.01,20.95-.1.3-.25.48-.56.59-.79.26-3.21.25-4.2.06-.58-.09-.78-.55-.87-1.1-1.52-5.9-5.07-21.14-14.56-20.65-5.74.26-9.54,4.6-10.44,10.38-2.17,11.8,3.88,28.89,5.05,32,.42,1.13,1.14,1.54,2.11,1.79,14.02,2.63,27.29,2.93,41.25-.17Z"/>
  <ellipse class="c" cx="45.26" cy="51.08" rx="8.07" ry="5.09"/>
  <ellipse class="c" cx="61.84" cy="36.81" rx="1.11" ry="4.11"/>
  <ellipse class="c" cx="28.68" cy="36.81" rx="1.11" ry="4.11"/>
</svg>